<svg width="50" height="50" viewBox="0 0 50 50" fill="none" xmlns="http://www.w3.org/2000/svg">
<g id="Layer_1">
<path id="Vector" d="M2.45926 46.5518C-0.819752 43.2711 -0.819752 37.9261 2.45926 34.6455C4.51017 32.5935 7.44531 31.7457 10.3068 32.3969C12.2717 32.8515 14.3472 32.3232 15.8577 30.9839C17.3683 29.6446 18.142 27.654 17.9332 25.6512C17.8841 25.2335 17.8841 24.8034 17.9332 24.3734C18.1297 22.4934 17.4543 20.6257 16.1279 19.2987C16.042 19.2127 15.9437 19.1267 15.8455 19.0407C14.3349 17.7014 12.2717 17.173 10.2945 17.6277C7.44531 18.2789 4.51017 17.4434 2.45926 15.3791C-0.819752 12.0861 -0.819752 6.75349 2.45926 3.46051C5.73826 0.179829 11.0805 0.179829 14.3595 3.46051C16.4104 5.51248 17.2578 8.44912 16.6069 11.312C16.1525 13.278 16.6806 15.3545 18.0315 16.8659C18.1174 16.9642 18.2034 17.0502 18.2894 17.1485C19.6157 18.4755 21.4824 19.1513 23.3614 18.9547C23.7789 18.9055 24.2088 18.9055 24.6263 18.9547C26.6404 19.1636 28.6176 18.3895 29.9562 16.8782C31.2949 15.3668 31.8229 13.3026 31.3808 11.3243C30.7299 8.4737 31.565 5.53705 33.6282 3.4728C36.9072 0.192116 42.2495 0.192116 45.5285 3.4728C48.8075 6.75349 48.8075 12.0984 45.5285 15.3791C43.4775 17.4311 40.5424 18.2789 37.681 17.6277C35.716 17.173 33.6405 17.7014 32.13 19.0407C30.6194 20.38 29.8457 22.3705 30.0545 24.3734C30.1036 24.7911 30.1036 25.2212 30.0545 25.6389C29.858 27.5189 30.5335 29.3865 31.8598 30.7136C31.9458 30.7996 32.044 30.8856 32.1423 30.9716C33.6528 32.3109 35.716 32.8392 37.6932 32.3846C40.5424 31.7334 43.4775 32.5689 45.5407 34.6332C48.8197 37.9139 48.8197 43.2588 45.5407 46.5395C42.2617 49.8202 36.9195 49.8202 33.6405 46.5395C31.5896 44.4875 30.7422 41.5509 31.3931 38.688C31.8475 36.722 31.3194 34.6455 29.9808 33.1341C29.8948 33.0358 29.8089 32.9498 29.7229 32.8515C28.3966 31.5245 26.5299 30.861 24.6509 31.0453C24.2333 31.0945 23.8035 31.0945 23.3737 31.0453C21.3596 30.8364 19.3824 31.6105 18.0437 33.1218C16.7051 34.6332 16.177 36.6974 16.6314 38.6757C17.2823 41.5263 16.4472 44.4629 14.384 46.5272C11.105 49.8079 5.76282 49.8079 2.48382 46.5272L2.45926 46.5518Z" fill="#484848"/>
</g>
</svg>
