<svg width="50" height="50" viewBox="0 0 50 50" fill="none" xmlns="http://www.w3.org/2000/svg">
<g id="Layer_1" clip-path="url(#clip0_592_1061)">
<path id="Vector" d="M24.9965 14.3151C24.9965 -7.0553 41.0209 -2.75407 30.3425 15.7398C41.0209 -2.76764 52.7577 8.96913 34.2502 19.6476C52.7577 8.96913 57.0453 24.9936 35.6749 24.9936C57.0453 24.9936 52.7441 41.018 34.2502 30.3396C52.7577 41.018 41.0209 52.7547 30.3425 34.2473C41.0209 52.7547 24.9965 57.0424 24.9965 35.672C24.9965 57.0424 8.97206 52.7412 19.6505 34.2473C8.95849 52.7547 -2.76471 41.018 15.7428 30.3396C-2.76471 41.018 -7.05237 24.9936 14.3181 24.9936C-7.05237 24.9936 -2.75114 8.96913 15.7428 19.6476C-2.75114 8.96913 8.97206 -2.75407 19.6641 15.7398C8.97206 -2.76764 25.01 -7.0553 25.01 14.3151H24.9965Z" fill="#484848"/>
</g>
<defs>
<clipPath id="clip0_592_1061">
<rect width="50" height="50" fill="white"/>
</clipPath>
</defs>
</svg>
