<svg width="32" height="32" viewBox="0 0 32 32" fill="none" xmlns="http://www.w3.org/2000/svg">
<path d="M24.4853 20.7397C24.4853 17.8611 22.9472 15.3642 19.1822 14.0714L16.2656 13.0727C13.7463 12.2205 12.7652 11.1341 12.7652 9.87119C12.7652 8.13784 14.4618 6.72849 16.5837 6.72849C18.1218 6.72849 19.5796 7.43316 20.4279 8.31428C21.1177 9.01895 21.2763 9.60707 21.0117 10.1941L21.4626 10.5171L24.1672 6.11043L23.743 5.75755C23.3457 6.16924 22.8412 5.9928 22.1524 5.58112C20.9378 4.8711 19.2079 4.28511 17.4834 4.10868V2.40099C17.4834 1.93798 17.643 1.80538 18.0404 1.76154V1.21191H13.9605V1.76261C14.299 1.80645 14.5175 1.93905 14.5175 2.40206V4.26587C11.1938 5.01118 8.81489 7.65237 8.81489 10.8988C8.81489 13.8661 10.6711 15.9214 13.9584 17.0377L17.2199 18.1541C19.0494 18.7711 20.4815 19.7987 20.4815 21.5032C20.4815 23.2953 18.9701 24.7346 16.6897 24.7346C14.6482 24.7346 12.9515 23.7658 11.8644 22.6195C11.0685 21.7673 10.8564 21.1514 11.1489 20.5344L10.6979 20.2114L7.51562 24.941L7.91301 25.3227C8.39073 24.8533 8.94664 24.8533 9.87529 25.4992C11.2388 26.4252 12.8883 27.117 14.5175 27.4603V29.3551C14.5175 29.8181 14.3579 29.9507 13.9605 29.9946V30.5452H18.0404V29.9946C17.7019 29.9507 17.4834 29.8181 17.4834 29.3551V27.6741C21.5033 27.3812 24.4853 24.7763 24.4853 20.7407V20.7397Z" fill="black"/>
</svg>
