<?xml version="1.0" encoding="UTF-8"?>
<svg id="_레이어_2" data-name="레이어 2" xmlns="http://www.w3.org/2000/svg" viewBox="0 0 68.87 63.55">
  <defs>
    <style>
      .cls-1 {
        fill: #392020;
        stroke-width: 0px;
      }
    </style>
  </defs>
  <g id="_레이어_1-2" data-name="레이어 1">
    <g>
      <path class="cls-1" d="m34.44,0C15.42,0,0,12.16,0,27.15c0,9.7,6.45,18.2,16.14,23.01-.53,1.81-3.39,11.7-3.5,12.47,0,0-.07.59.31.81.38.22.82.05.82.05,1.08-.15,12.56-8.22,14.55-9.62,1.98.29,4.03.43,6.12.43,19.01,0,34.43-12.15,34.43-27.15S53.45,0,34.44,0Zm-17.06,34.73c0,1.05-.89,1.9-1.98,1.9s-1.99-.85-1.99-1.9v-11.8h-3.1c-1.07,0-1.95-.87-1.95-1.94s.88-1.95,1.95-1.95h10.17c1.08,0,1.95.87,1.95,1.95s-.87,1.94-1.95,1.94h-3.1v11.8Zm16.7,1.6c-.4.18-.83.27-1.26.27-.83,0-1.47-.33-1.66-.87l-.98-2.58h-6.06l-.98,2.58c-.19.54-.83.87-1.65.87-.44,0-.87-.09-1.27-.27-.54-.25-1.07-.95-.47-2.82l4.75-12.51c.34-.95,1.36-1.93,2.65-1.96,1.3.03,2.31,1.01,2.65,1.96l4.75,12.51c.6,1.87.08,2.57-.47,2.82Zm10.04.01h-6.37c-1.05,0-1.91-.82-1.91-1.82v-13.49c0-1.1.91-1.99,2.03-1.99s2.03.89,2.03,1.99v11.67h4.22c1.05,0,1.9.82,1.9,1.82s-.85,1.82-1.9,1.82Zm15.55-1.5c-.07.53-.35,1-.77,1.31-.34.27-.76.41-1.2.41-.62,0-1.21-.29-1.58-.79l-4.66-6.18-.69.69v4.34c0,.55-.22,1.04-.58,1.4-.36.36-.86.58-1.41.58-1.09,0-1.98-.89-1.98-1.98v-13.59c0-1.1.89-1.99,1.98-1.99s1.99.89,1.99,1.99v4.27l5.54-5.55c.29-.28.68-.44,1.1-.44.5,0,1,.22,1.37.59.35.35.56.79.58,1.26.03.47-.12.9-.43,1.21l-4.53,4.52,4.89,6.48c.32.42.45.95.38,1.47Z"/>
      <polygon class="cls-1" points="25.17 29.63 29.14 29.63 27.15 24 25.17 29.63"/>
    </g>
  </g>
</svg>