<svg width="60" height="60" viewBox="0 0 60 60" fill="none" xmlns="http://www.w3.org/2000/svg">
<g clip-path="url(#clip0_190_623)">
<path d="M60 46.6511C60 54.0239 54.0245 60 46.6508 60H13.3492C5.97554 60 0 54.0239 0 46.6511V13.3489C0 5.97611 5.97554 0 13.3492 0H46.6508C54.0245 0 60 5.97611 60 13.3489V46.6511Z" fill="#FAE103"/>
<path d="M29.9685 10.1721C19.4869 10.1721 10.9922 18.0306 10.9922 27.7243C10.9922 34.8837 13.9919 38.3011 18.0975 41.4177L18.117 41.4263V49.828C18.117 50.2262 18.5693 50.4513 18.8874 50.2154L26.0836 44.8718L26.2395 44.9389C27.445 45.1618 28.6916 45.2787 29.9707 45.2787C40.45 45.2787 48.947 37.4203 48.947 27.7265C48.947 18.0327 40.4522 10.1743 29.9707 10.1743M23.6077 32.1719C25.469 32.1719 27.0597 31.0595 27.538 29.3389H30.2888C29.6179 32.6502 27.0402 34.8188 23.6077 34.8188C19.619 34.8188 16.457 31.8451 16.457 27.7049C16.457 23.5646 19.619 20.5909 23.6077 20.5909C27.0749 20.5909 29.6698 22.805 30.3083 26.1726H27.5662C27.1484 24.3416 25.5036 23.201 23.6077 23.201C20.9262 23.201 19.1428 25.1142 19.1428 27.7049C19.1428 30.2955 21.1707 32.1719 23.6077 32.1719ZM41.7356 34.5461H39.2142V28.8584C39.2142 27.549 38.4503 26.8456 37.2794 26.8456C35.97 26.8456 35.1303 27.6464 35.1303 29.2696V34.5483H32.6089V20.6364H35.1303V25.8696C35.7341 24.9519 36.7123 24.5017 38.0412 24.5017C39.1168 24.5017 39.9955 24.8523 40.6795 25.5774C41.3828 26.3002 41.7356 27.2785 41.7356 28.5489V34.5504V34.5461Z" fill="#392020"/>
</g>
<defs>
<clipPath id="clip0_190_623">
<rect width="60" height="60" fill="white"/>
</clipPath>
</defs>
</svg>
