<svg width="77" height="27" viewBox="0 0 77 27" fill="none" xmlns="http://www.w3.org/2000/svg">
<path d="M7.23242 1.4707C9.35645 1.4707 11.2168 2.24707 12.5059 3.55078H18.541V0.0351562H22.2617V15.6504H18.541V12.457H12.4766C11.1875 13.7461 9.3418 14.5225 7.23242 14.5078C3.18945 14.5371 0.113281 11.7539 0.142578 8.00391C0.113281 4.19531 3.18945 1.4707 7.23242 1.4707ZM7.23242 4.66406C5.15234 4.66406 3.6582 5.89453 3.6875 8.00391C3.6582 10.0547 5.15234 11.373 7.23242 11.3438C9.25391 11.373 10.7188 10.0547 10.7188 8.00391C10.7188 5.89453 9.25391 4.66406 7.23242 4.66406ZM13.1504 16.207C18.8047 16.207 22.3203 18.1406 22.3496 21.4512C22.3203 24.7617 18.8047 26.6953 13.1504 26.6953C7.52539 26.6953 3.98047 24.7617 3.98047 21.4512C3.98047 18.1406 7.52539 16.207 13.1504 16.207ZM13.1504 19.0488C9.60547 19.0488 7.64258 19.8398 7.64258 21.4512C7.64258 23.0039 9.60547 23.7949 13.1504 23.7949C16.7539 23.7949 18.6875 23.0039 18.6875 21.4512C18.6875 19.8398 16.7539 19.0488 13.1504 19.0488ZM14.1172 6.50977C14.2051 6.97852 14.2637 7.49121 14.2637 8.00391C14.2637 8.5166 14.2051 9 14.1172 9.46875H18.541V6.50977H14.1172ZM50.0352 9.46875V12.457H25.7188V9.46875H32.0762C32.8232 7.11035 32.999 5.36719 33.043 3.84375H27.7695V0.796875H36.7051V2.55469C36.7051 4.3418 36.7051 6.62695 35.9141 9.46875H42.623C43.2822 7.1543 43.458 5.30859 43.5312 3.84375H38.2871V0.796875H47.1348V2.32031C47.1348 3.97559 47.1348 6.37793 46.373 9.46875H50.0352ZM47.0176 14.2734V21.5684H32.2812V23.502H47.7793V26.373H28.5312V18.873H43.2969V17.1445H28.4727V14.2734H47.0176ZM72.7988 0.0644531V5.68945H76.4023V8.73633H72.7988V15.0938H69.0488V0.0644531H72.7988ZM72.7988 16.2949V26.373H55.3379V16.2949H72.7988ZM59 19.1953V23.4434H69.1367V19.1953H59ZM56.4805 1.32422V10.582C59.7031 10.5234 63.1748 10.2158 66.8809 9.49805L67.3203 12.5449C62.9258 13.4238 58.7949 13.6582 55.0156 13.6582H52.7305V1.32422H56.4805Z" fill="#1A1A1A"/>
</svg>
