<svg width="110" height="135" viewBox="0 0 110 135" fill="none" xmlns="http://www.w3.org/2000/svg">
<path id="Vector" d="M86 87.552C86 75.6778 79.6552 65.3784 64.1247 60.0456L52.0935 55.9258C41.7016 52.4103 37.6544 47.9288 37.6544 42.7195C37.6544 35.5694 44.653 29.7559 53.4058 29.7559C59.7506 29.7559 65.7639 32.6627 69.2633 36.2972C72.1087 39.204 72.7626 41.63 71.6713 44.0516L73.5314 45.3837L84.6878 27.2064L82.9381 25.7508C81.2989 27.449 79.2178 26.7212 76.3768 25.023C71.3664 22.0941 64.2308 19.6769 57.1172 18.9491V11.9049C57.1172 9.99501 57.7756 9.44805 59.4148 9.26721V7H42.5852V9.27162C43.9814 9.45246 44.8828 9.99942 44.8828 11.9093V19.5976C31.1726 22.672 21.3595 33.5669 21.3595 46.9584C21.3595 59.1987 29.0165 67.6764 42.5764 72.2814L56.0303 76.8864C63.5769 79.4315 69.4842 83.6704 69.4842 90.7014C69.4842 98.0941 63.2499 104.031 53.8432 104.031C45.4218 104.031 38.4232 100.035 33.9385 95.3064C30.6557 91.7909 29.7808 89.2502 30.9871 86.7051L29.1269 85.373L16 104.882L17.6392 106.457C19.6098 104.521 21.9029 104.521 25.7336 107.185C31.3582 111.005 38.1625 113.859 44.8828 115.275V123.091C44.8828 125.001 44.2245 125.548 42.5852 125.728V128H59.4148V125.728C58.0186 125.548 57.1172 125.001 57.1172 123.091V116.157C73.6993 114.948 86 104.203 86 87.5564V87.552Z" fill="#fff"/>
</svg>
