<?xml version="1.0"?>
<svg width="172" height="30" xmlns="http://www.w3.org/2000/svg" xmlns:svg="http://www.w3.org/2000/svg">
 <defs>
  <clipPath id="clip0_738_665">
   <rect fill="white" height="30" id="svg_1" width="172"/>
  </clipPath>
 </defs>
 <g class="layer">
  <title>Layer 1</title>
  <g clip-path="url(#clip0_738_665)" id="로고">
   <path d="m129.06,18.03c0,-2.61 -1.36,-4.87 -4.7,-6.03l-2.59,-0.91c-2.23,-0.77 -3.1,-1.75 -3.1,-2.89c0,-1.57 1.51,-2.85 3.39,-2.85c1.36,0 2.65,0.64 3.4,1.44c0.62,0.63 0.76,1.17 0.52,1.7l0.4,0.29l2.4,-3.99l-0.38,-0.32c-0.35,0.38 -0.8,0.22 -1.41,-0.15c-1.07,-0.65 -2.61,-1.18 -4.14,-1.34l0,-1.54c0,-0.42 0.14,-0.54 0.5,-0.58l0,-0.5l-3.62,0l0,0.5c0.3,0.04 0.49,0.16 0.49,0.58l0,1.68c-2.94,0.68 -5.05,3.07 -5.05,6.01c0,2.68 1.64,4.54 4.56,5.55l2.89,1.01c1.62,0.56 2.89,1.49 2.89,3.03c0,1.62 -1.34,2.92 -3.36,2.92c-1.81,0 -3.32,-0.87 -4.28,-1.91c-0.7,-0.77 -0.89,-1.33 -0.64,-1.89l-0.39,-0.29l-2.82,4.28l0.35,0.34c0.42,-0.42 0.91,-0.42 1.74,0.16c1.21,0.84 2.67,1.47 4.11,1.78l0,1.71c0,0.42 -0.14,0.54 -0.49,0.58l0,0.5l3.62,0l0,-0.5c-0.3,-0.04 -0.5,-0.16 -0.5,-0.58l0,-1.52c3.57,-0.27 6.21,-2.62 6.21,-6.27l0,0z" fill="#000000" id="Vector"/>
   <path d="m0,26.85l0,-4.41l0.65,0c0.26,0.93 0.42,1.06 1.11,1.06l7.62,0l0,-4.78c0,-0.69 -0.36,-0.89 -0.92,-0.96l0,-0.83l6.68,0l0,0.83c-0.65,0.07 -0.91,0.27 -0.91,0.96l0,4.78l11.62,0c0.68,0 0.85,-0.13 1.11,-1.06l0.65,0l0,4.41l-27.61,0zm24.48,-18.34c-0.19,4.97 -0.68,8.39 -2.05,11.61l-3.97,0c0.42,-2.16 0.71,-4.45 0.91,-6.87c-2.47,0.4 -5.6,0.43 -8.04,0.43l-8.11,0l0,-3.28l8.34,0c2.7,0 5.3,0 8.01,-0.24c0,-0.56 0.03,-1.12 0.03,-1.69l0.06,-3.61l-14.78,0c-0.84,0 -1.04,0.26 -1.3,1.03l-0.55,0l0,-4.61c0.36,0.2 1.01,0.26 1.85,0.26l19.86,0l-0.26,6.97l0,0z" fill="#000000" id="Vector_2"/>
   <path d="m45.25,20.55l0,7.66c0,0.7 0.42,0.89 1.08,0.96l0,0.83l-7.04,0l0,-0.83c0.72,-0.07 1.08,-0.26 1.08,-0.96l0,-7.66l-11.49,0l0,-4.48l0.65,0c0.26,0.93 0.42,1.06 1.1,1.06l24.13,0c0.68,0 0.84,-0.13 1.1,-1.06l0.65,0l0,4.48l-11.26,0l0,0zm6.32,-16.22l-6.22,0l0,0.73c0,3.78 4.1,6.63 9.44,7.69l-1.46,2.39c-3.94,-0.63 -8.05,-2.22 -10.72,-4.87c-2.63,2.65 -6.73,4.24 -10.67,4.87l-1.47,-2.39c5.34,-1.06 9.44,-3.91 9.44,-7.69l0,-0.73l-6.25,0c-0.84,0 -1.04,0.26 -1.3,1.03l-0.55,0l0,-4.65c0.35,0.2 1,0.27 1.85,0.27l17.91,0c0.84,0 1.5,-0.07 1.85,-0.27l0,4.65l-0.55,0c-0.26,-0.77 -0.45,-1.03 -1.3,-1.03l0,0z" fill="#000000" id="Vector_3"/>
   <path d="m74.13,21.38l0,6.83c0,0.7 0.43,0.89 1.08,0.96l0,0.83l-7.03,0l0,-0.83c0.71,-0.07 1.07,-0.26 1.07,-0.96l0,-6.83l-11.49,0l0,-4.45l0.65,0c0.26,0.93 0.42,1.06 1.11,1.06l24.12,0c0.68,0 0.85,-0.13 1.11,-1.06l0.65,0l0,4.45l-11.27,0l0,0zm-13.31,-6.24l0,-12.6c0,-0.7 -0.36,-0.9 -1.04,-0.96l0,-0.83l6.93,0l0,0.83c-0.65,0.06 -1.07,0.26 -1.07,0.96l0,1.92l11.82,0l0,-1.92c0,-0.7 -0.36,-0.9 -1.04,-0.96l0,-0.83l6.87,0l0,0.83c-0.65,0.06 -1.08,0.26 -1.08,0.96l0,12.6l-21.39,0l0,0zm16.64,-3.35l0,-4.01l-11.82,0l0,4.01l11.82,0z" fill="#000000" id="Vector_4"/>
   <path d="m111.25,6.82c-0.1,1.75 -0.46,3.48 -1.14,4.77l2.41,0c0.68,0 0.84,-0.13 1.1,-0.99l0.65,0l0,4.18l-27.64,0l0,-4.18l0.65,0c0.26,0.86 0.43,0.99 1.11,0.99l17.58,0c0.16,-0.73 0.33,-1.79 0.46,-2.88c-2.54,0.49 -5.96,0.53 -8.53,0.53l-8.11,0l0,-3.02l8.34,0c2.83,0 5.59,0 8.43,-0.27l0.03,-2.12l-15.4,0c-0.85,0 -1.04,0.13 -1.3,0.9l-0.56,0l0,-4.32c0.36,0.2 1.01,0.27 1.86,0.27l20.35,0l-0.29,6.14l0,0zm-21.56,22.81l0,-5.97c0,-0.69 -0.35,-0.89 -0.91,-0.96l0,-0.83l17.19,0l0,-2.12l-14.58,0c-0.85,0 -1.04,0.07 -1.3,0.53l-0.56,0l0,-3.71c0.36,0.2 1.01,0.26 1.86,0.26l19.86,0l0,7.67l-16.31,0l0,2.15l15.2,0c0.69,0 0.85,-0.1 1.11,-0.63l0.65,0l0,3.62l-22.2,0l-0.01,-0.01z" fill="#000000" id="Vector_5"/>
   <path d="m130.23,21.03l0,-19.24c0,-0.69 -0.35,-0.89 -0.91,-0.96l0,-0.83l5.47,0l0,10.32l1.66,0l0,-10.32l5.76,0l0,0.83c-0.65,0.07 -1.07,0.26 -1.07,0.96l0,26.37c0,0.7 0.29,0.89 0.94,0.96l0,0.76l-5.63,0l0,-15.49l-1.66,0l0,15.49l-5.5,0l0,-0.76c0.55,-0.07 0.94,-0.26 0.94,-0.96l0,-4.21" fill="#000000" id="Vector_6"/>
   <path d="m144.39,26.9l0,-4.48l0.65,0c0.26,0.93 0.43,1.06 1.11,1.06l24.09,0c0.69,0 0.85,-0.13 1.11,-1.06l0.65,0l0,4.48l-27.61,0l0,0zm10.16,-24.68l0,-0.83l7.33,0l0,0.83c-0.66,0.07 -1.08,0.27 -1.08,0.96l0,1.7c0,5.7 4.69,10.01 9.8,11.94l-1.56,2.29c-3.94,-1.33 -8.43,-4.05 -10.84,-7.73c-2.38,3.68 -6.87,6.4 -10.81,7.73l-1.56,-2.29c5.11,-1.93 9.8,-6.24 9.8,-11.94l0,-1.7c0,-0.69 -0.36,-0.89 -1.08,-0.96l0,0z" fill="#000000" id="Vector_7"/>
  </g>
 </g>
</svg>