<svg width="172" height="30" viewBox="0 0 172 30" fill="none" xmlns="http://www.w3.org/2000/svg">
<g id="&#235;&#161;&#156;&#234;&#179;&#160;" clip-path="url(#clip0_738_665)">
<path id="Vector" d="M129.062 18.028C129.062 15.4232 127.698 13.1643 124.36 11.9962L121.774 11.0922C119.54 10.3219 118.672 9.33834 118.672 8.19563C118.672 6.62745 120.176 5.35212 122.056 5.35212C123.42 5.35212 124.713 5.98978 125.464 6.78658C126.075 7.42425 126.216 7.95582 125.982 8.48739L126.381 8.78025L128.778 4.79403L128.402 4.47464C128.049 4.84707 127.603 4.68683 126.992 4.3155C125.915 3.67342 124.381 3.14406 122.853 2.98381V1.43773C122.853 1.01888 122.994 0.899529 123.347 0.859744V0.361328H119.73V0.859744C120.031 0.899529 120.224 1.01888 120.224 1.43773V3.12417C117.278 3.7983 115.168 6.1876 115.168 9.12505C115.168 11.8094 116.813 13.6694 119.728 14.6795L122.619 15.6896C124.241 16.2476 125.51 17.1782 125.51 18.7187C125.51 20.34 124.17 21.6418 122.148 21.6418C120.338 21.6418 118.834 20.7654 117.87 19.7288C117.165 18.9585 116.977 18.4004 117.235 17.8424L116.836 17.5495L114.016 21.8275L114.368 22.1734C114.791 21.7479 115.285 21.7479 116.108 22.3325C117.317 23.1702 118.78 23.7957 120.224 24.1063V25.8203C120.224 26.2392 120.083 26.3585 119.73 26.3983V26.8967H123.347V26.3983C123.046 26.3585 122.853 26.2392 122.853 25.8203V24.2997C126.417 24.0344 129.06 21.6783 129.06 18.0269L129.062 18.028Z" fill="white"/>
<path id="Vector_2" d="M0 26.8491V22.4374H0.65087C0.911218 23.3657 1.07394 23.4983 1.75735 23.4983H9.37578V18.7219C9.37578 18.0257 9.0178 17.8267 8.46456 17.7604V16.9316H15.1392V17.7604C14.4884 17.8267 14.228 18.0257 14.228 18.7219V23.4983H25.8504C26.5338 23.4983 26.6965 23.3657 26.9569 22.4374H27.6077V26.8491H0ZM24.4825 8.50714C24.2872 13.4825 23.7991 16.8984 22.4312 20.1155H18.4587C18.8817 17.9594 19.1746 15.6706 19.3699 13.2493C16.8955 13.6471 13.7702 13.6803 11.3284 13.6803H3.22289V10.3969H11.5573C14.2595 10.3969 16.864 10.3969 19.5662 10.1648C19.5662 9.60122 19.5988 9.0376 19.5988 8.47288L19.6639 4.85798H4.88369C4.03756 4.85798 3.8423 5.12321 3.58087 5.88576H3.02763V1.27734C3.38561 1.47627 4.03648 1.54258 4.88369 1.54258H24.7439L24.4836 8.50824L24.4825 8.50714Z" fill="white"/>
<path id="Vector_3" d="M45.252 20.5479V28.2098C45.252 28.906 45.675 29.1049 46.3259 29.1712V30.0001H39.2933V29.1712C40.0092 29.1049 40.3672 28.906 40.3672 28.2098V20.5479H28.875V16.0699H29.5259C29.7862 16.9982 29.9489 17.1308 30.6324 17.1308H54.7568C55.4403 17.1308 55.603 16.9982 55.8633 16.0699H56.5142V20.5479H45.2498H45.252ZM51.5676 4.32889H45.3496V5.05828C45.3496 8.83895 49.4523 11.6924 54.7916 12.7533L53.326 15.1415C49.3861 14.5116 45.2845 12.9191 42.6149 10.2657C39.9778 12.9191 35.8751 14.5116 31.9363 15.1415L30.4707 12.7533C35.81 11.6924 39.9127 8.83895 39.9127 5.05828V4.32889H33.6621C32.816 4.32889 32.6208 4.59413 32.3593 5.35667H31.8061V0.712891C32.1641 0.911815 32.8149 0.978123 33.6621 0.978123H51.5687C52.4148 0.978123 53.0668 0.911815 53.4247 0.712891V5.35667H52.8715C52.6111 4.59413 52.4159 4.32889 51.5698 4.32889H51.5676Z" fill="white"/>
<path id="Vector_4" d="M74.1348 21.3766V28.2097C74.1348 28.9059 74.5579 29.1048 75.2087 29.1711V30H68.1761V29.1711C68.892 29.1048 69.25 28.9059 69.25 28.2097V21.3766H57.7578V16.9318H58.4087C58.669 17.8601 58.8317 17.9927 59.5152 17.9927H83.6397C84.3231 17.9927 84.4858 17.8601 84.7461 16.9318H85.397V21.3766H74.1326H74.1348ZM60.8191 15.1415V2.53739C60.8191 1.84115 60.4611 1.64223 59.7777 1.57592V0.74707H66.7127V1.57592C66.0618 1.64223 65.6388 1.84115 65.6388 2.53739V4.46143H77.4575V2.53739C77.4575 1.84115 77.0995 1.64223 76.4161 1.57592V0.74707H83.286V1.57592C82.6352 1.64223 82.2121 1.84115 82.2121 2.53739V15.1415H60.8223H60.8191ZM77.4553 11.7907V7.77683H65.6366V11.7907H77.4553Z" fill="white"/>
<path id="Vector_5" d="M111.247 6.81611C111.149 8.57438 110.791 10.2984 110.108 11.5925H112.517C113.2 11.5925 113.363 11.4599 113.623 10.5979H114.274V14.7775H86.6328V10.5979H87.2837C87.544 11.4599 87.7067 11.5925 88.3902 11.5925H105.971C106.134 10.8631 106.297 9.80108 106.427 8.707C103.887 9.20431 100.469 9.23746 97.8972 9.23746H89.7906V6.21934H98.125C100.957 6.21934 103.725 6.21934 106.557 5.95411L106.59 3.83114H91.19C90.3439 3.83114 90.1486 3.96376 89.8882 4.7263H89.335V0.414062C89.693 0.612987 90.3439 0.679295 91.1911 0.679295H111.539L111.247 6.81501V6.81611ZM89.6941 29.6349V23.665C89.6941 22.9688 89.3361 22.7698 88.7829 22.7035V21.8747H105.973V19.7517H91.3874C90.5413 19.7517 90.346 19.818 90.0857 20.2822H89.5324V16.5678C89.8904 16.7667 90.5413 16.8331 91.3885 16.8331H111.249V24.495H94.9379V26.6511H110.142C110.826 26.6511 110.988 26.5516 111.249 26.0212H111.9V29.636H89.6952L89.6941 29.6349Z" fill="white"/>
<path id="Vector_6" d="M130.233 21.0285V1.79142C130.233 1.09519 129.875 0.896265 129.322 0.829957V0H134.791V10.3153H136.452V0H142.214V0.828851C141.563 0.89516 141.14 1.09408 141.14 1.79032V28.1588C141.14 28.8551 141.433 29.054 142.084 29.1203V29.8829H136.452V14.3933H134.791V29.8829H129.289V29.1203C129.842 29.054 130.233 28.8551 130.233 28.1588V23.9461" fill="white"/>
<path id="Vector_7" d="M144.393 26.899V22.421H145.044C145.304 23.3493 145.467 23.4819 146.15 23.4819H170.242C170.926 23.4819 171.088 23.3493 171.349 22.421H171.999V26.899H144.391H144.393ZM154.551 2.22241V1.39355H161.876V2.22241C161.225 2.28871 160.802 2.48764 160.802 3.18387V4.87584C160.802 10.5805 165.491 14.8928 170.602 16.8168L169.039 19.1056C165.1 17.7794 160.607 15.0586 158.198 11.3773C155.821 15.0586 151.328 17.7783 147.389 19.1056L145.826 16.8168C150.937 14.8928 155.626 10.5816 155.626 4.87584V3.18387C155.626 2.48764 155.268 2.28871 154.552 2.22241H154.551Z" fill="white"/>
</g>
<defs>
<clipPath id="clip0_738_665">
<rect width="172" height="30" fill="white"/>
</clipPath>
</defs>
</svg>
