<svg width="32" height="32" viewBox="0 0 32 32" fill="none" xmlns="http://www.w3.org/2000/svg">
<g id="Logomark">
<g id="Union">
<path d="M10.2222 4.92593C10.2222 3.86227 9.35996 3 8.2963 3H4.92593C3.86227 3 3 3.86227 3 4.92593V8.2963C3 9.35996 3.86227 10.2222 4.92593 10.2222H8.2963C9.35996 10.2222 10.2222 9.35996 10.2222 8.2963V4.92593Z" fill="white"/>
<path d="M12.3889 4.92593C12.3889 3.86227 13.2512 3 14.3148 3H17.6852C18.7488 3 19.6111 3.86227 19.6111 4.92593V8.05556C19.6111 9.11922 20.4734 9.98148 21.537 9.98148H27.0741C28.1377 9.98148 29 10.8437 29 11.9074V17.6852C29 18.7488 28.1377 19.6111 27.0741 19.6111H21.537C20.4734 19.6111 19.6111 20.4734 19.6111 21.537V27.0741C19.6111 28.1377 18.7488 29 17.6852 29H11.9074C10.8437 29 9.98148 28.1377 9.98148 27.0741V21.2963C9.98148 20.2326 10.8437 19.3704 11.9074 19.3704H17.4444C18.5081 19.3704 19.3704 18.5081 19.3704 17.4444V12.1481C19.3704 11.0845 18.5081 10.2222 17.4444 10.2222H14.3148C13.2512 10.2222 12.3889 9.35996 12.3889 8.2963V4.92593Z" fill="white"/>
</g>
</g>
</svg>
