<?xml version="1.0"?>
<svg width="32" height="32" xmlns="http://www.w3.org/2000/svg" xmlns:svg="http://www.w3.org/2000/svg">
 <g class="layer">
  <title>Layer 1</title>
  <g id="Logomark">
   <g id="Union">
    <path d="m10.22,4.93c0,-1.07 -0.86,-1.93 -1.92,-1.93l-3.37,0c-1.07,0 -1.93,0.86 -1.93,1.93l0,3.37c0,1.06 0.86,1.92 1.93,1.92l3.37,0c1.06,0 1.92,-0.86 1.92,-1.92l0,-3.37z" fill="#000000" id="svg_1"/>
    <path d="m12.39,4.93c0,-1.07 0.86,-1.93 1.92,-1.93l3.38,0c1.06,0 1.92,0.86 1.92,1.93l0,3.13c0,1.06 0.86,1.92 1.93,1.92l5.53,0c1.07,0 1.93,0.86 1.93,1.93l0,5.78c0,1.06 -0.86,1.92 -1.93,1.92l-5.53,0c-1.07,0 -1.93,0.86 -1.93,1.93l0,5.53c0,1.07 -0.86,1.93 -1.92,1.93l-5.78,0c-1.07,0 -1.93,-0.86 -1.93,-1.93l0,-5.77c0,-1.07 0.86,-1.93 1.93,-1.93l5.53,0c1.07,0 1.93,-0.86 1.93,-1.93l0,-5.29c0,-1.07 -0.86,-1.93 -1.93,-1.93l-3.13,0c-1.06,0 -1.92,-0.86 -1.92,-1.92l0,-3.37z" fill="#000000" id="svg_2"/>
   </g>
  </g>
 </g>
</svg>